# xmcd CD database file
#
# Track frame offsets:
#	150
#	6675
#	22485
#	39690
#	55005
#	71905
#	90670
#	111512
#	131087
#	149527
#	167707
#	187592
#	202570
#
# Disc length: 2954 seconds
#
# Revision: 2
# Processed by: cddbd v1.5PL3 Copyright (c) Steve Scherf et al.
# Submitted via: CDex 1.50
#
DISCID=bf0b880d
DTITLE=Queen Pen - My Melody
DYEAR=1997
DGENRE=R&B
TTITLE0=Intro
TTITLE1=Queen of the Click
TTITLE2=Man Behind the Music
TTITLE3=All My Love
TTITLE4=My Melody
TTITLE5=Party Ain't A Party
TTITLE6=It's True
TTITLE7=The Set Up
TTITLE8=Get Away
TTITLE9=I'm Gon Blow Up
TTITLE10=Girlfriend
TTITLE11=No Hooks
TTITLE12=So Many Ways
EXTD=YEAR: 1997
EXTT0=
EXTT1=
EXTT2=
EXTT3=
EXTT4=
EXTT5=
EXTT6=
EXTT7=
EXTT8=
EXTT9=
EXTT10=
EXTT11=
EXTT12=
PLAYORDER=
